<svg width="120" height="30" viewBox="0 0 120 30" fill="none" xmlns="http://www.w3.org/2000/svg">
<g clip-path="url(#clip0_6_101)">
<path d="M54.4454 20.7852H43.7523L42.0051 24.7344H39.0698L47.8059 5.54272H50.4617L59.1979 24.7344H56.1927L54.4454 20.7852ZM49.1338 8.72979L44.8706 18.291H53.3971L49.2037 8.72979H49.1338Z" fill="white"/>
<path d="M65.0686 24.7344L59.3377 11.224H61.9935L66.3266 22.1709L70.6597 11.224H73.2457L67.5147 24.7344H64.9987H65.0686Z" fill="white"/>
<path d="M86.3848 24.7344V22.5866H86.2451C85.1967 24.1109 83.3796 25.0115 81.0034 25.0115C77.0197 25.0115 74.2241 22.1016 74.2241 17.9446C74.2241 13.7875 77.0896 10.8776 81.0034 10.8776C83.3796 10.8776 85.2666 11.7783 86.2451 13.3025V11.1547H88.4116V24.6651H86.315L86.3848 24.7344ZM86.1053 18.0139C86.1053 15.1732 84.1484 13.164 81.4227 13.164C78.697 13.164 76.7401 15.1732 76.7401 18.0139C76.7401 20.8545 78.6271 22.8637 81.4227 22.8637C84.2183 22.8637 86.1053 20.8545 86.1053 18.0139Z" fill="white"/>
<path d="M105.045 16.9053V24.7344H102.599V17.1824C102.599 14.6189 101.201 13.164 98.895 13.164C96.379 13.164 94.8415 14.8961 94.8415 17.7367V24.7344H92.3953V11.224H94.492V13.3718H94.6318C95.5404 11.8476 97.2177 10.9469 99.524 10.9469C103.019 10.9469 105.115 13.2333 105.115 16.9053H105.045Z" fill="white"/>
<path d="M116.367 24.5266C115.738 24.873 114.97 25.0115 113.921 25.0115C111.056 25.0115 109.448 23.3487 109.448 20.3002V13.3718H106.932V11.224H109.518L109.868 7.55196H111.894V11.224H116.297V13.3718H111.894V20.3002C111.894 21.8938 112.733 22.8637 114.201 22.8637C114.97 22.8637 115.668 22.6559 116.228 22.1016H116.367V24.5958V24.5266Z" fill="white"/>
<path d="M23.4129 6.92841L14.3273 30.0693H4.33314C1.9569 30.0693 0 28.1293 0 25.7737V15.9353L23.343 6.85912L23.4129 6.92841ZM25.9289 0H4.33314C1.9569 0 0 1.93995 0 4.29561V11.0855L25.5096 1.59353L28.6546 4.71132L19.0798 30H25.9988C28.3751 30 30.332 28.06 30.332 25.7044V4.29561C30.332 1.93995 28.3751 0 25.9988 0H25.9289Z" fill="url(#paint0_radial_6_101)"/>
</g>
<defs>
<radialGradient id="paint0_radial_6_101" cx="0" cy="0" r="1" gradientUnits="userSpaceOnUse" gradientTransform="translate(-3.70414 30.2079) scale(29.4234 29.1686)">
<stop stop-color="#009E5C"/>
<stop offset="1" stop-color="#03FF94"/>
</radialGradient>
<clipPath id="clip0_6_101">
<rect width="120" height="30" fill="white"/>
</clipPath>
</defs>
</svg>
