<svg width="16" height="17" viewBox="0 0 16 17" fill="none" xmlns="http://www.w3.org/2000/svg">
<path d="M7.99999 15.1667C7.07777 15.1667 6.21111 14.9917 5.39999 14.6417C4.58888 14.2917 3.88333 13.8139 3.28333 13.2084C2.68333 12.6028 2.20833 11.8945 1.85833 11.0834C1.50833 10.2723 1.33333 9.41114 1.33333 8.50003C1.33333 6.75559 1.91111 5.25559 3.06666 4.00003C4.22222 2.74448 5.64444 2.03337 7.33333 1.8667V3.8667C6.18888 4.02225 5.23611 4.53614 4.47499 5.40837C3.71388 6.28059 3.33333 7.31114 3.33333 8.50003C3.33333 9.78892 3.78888 10.8889 4.69999 11.8C5.61111 12.7111 6.71111 13.1667 7.99999 13.1667C8.73333 13.1667 9.41944 13.0111 10.0583 12.7C10.6972 12.3889 11.2333 11.9667 11.6667 11.4334L13.4 12.4334C12.8 13.2667 12.0278 13.9306 11.0833 14.425C10.1389 14.9195 9.11111 15.1667 7.99999 15.1667ZM14.1 11.2L12.3667 10.2C12.4667 9.93337 12.5417 9.65837 12.5917 9.37503C12.6417 9.0917 12.6667 8.80003 12.6667 8.50003C12.6667 7.31114 12.2861 6.28059 11.525 5.40837C10.7639 4.53614 9.81111 4.02225 8.66666 3.8667V1.8667C10.3555 2.03337 11.7778 2.74448 12.9333 4.00003C14.0889 5.25559 14.6667 6.75559 14.6667 8.50003C14.6667 8.98892 14.6222 9.46114 14.5333 9.9167C14.4444 10.3723 14.3 10.8 14.1 11.2Z" fill="#121212"/>
</svg>
