<svg width="16" height="16" viewBox="0 0 16 16" fill="none" xmlns="http://www.w3.org/2000/svg">
<path d="M2.66667 14C2.3 14 1.98611 13.8694 1.725 13.6083C1.46389 13.3472 1.33334 13.0333 1.33334 12.6667V3.33333C1.33334 2.96667 1.46389 2.65278 1.725 2.39167C1.98611 2.13056 2.3 2 2.66667 2H13.3333C13.7 2 14.0139 2.13056 14.275 2.39167C14.5361 2.65278 14.6667 2.96667 14.6667 3.33333V12.6667C14.6667 13.0333 14.5361 13.3472 14.275 13.6083C14.0139 13.8694 13.7 14 13.3333 14H2.66667ZM2.66667 12.6667H13.3333V3.33333H2.66667V12.6667ZM4 11.3333H12V10H4V11.3333ZM4 8.66667H6.66667V4.66667H4V8.66667ZM8 8.66667H12V7.33333H8V8.66667ZM8 6H12V4.66667H8V6Z" fill="#121212"/>
</svg>
