<svg width="16" height="17" viewBox="0 0 16 17" fill="none" xmlns="http://www.w3.org/2000/svg">
<path d="M6.96666 10.8333C7.23333 11.1 7.57777 11.2305 8 11.225C8.42222 11.2194 8.73333 11.0666 8.93333 10.7666L12.6667 5.16663L7.06666 8.89996C6.76666 9.09996 6.60833 9.40552 6.59166 9.81663C6.575 10.2277 6.7 10.5666 6.96666 10.8333ZM8 3.16663C8.65555 3.16663 9.28611 3.25829 9.89166 3.44163C10.4972 3.62496 11.0667 3.89996 11.6 4.26663L10.3333 5.06663C9.96666 4.87774 9.58611 4.73607 9.19166 4.64163C8.79722 4.54718 8.4 4.49996 8 4.49996C6.52222 4.49996 5.26388 5.0194 4.225 6.05829C3.18611 7.09718 2.66666 8.35552 2.66666 9.83329C2.66666 10.3 2.73055 10.7611 2.85833 11.2166C2.98611 11.6722 3.16666 12.1 3.4 12.5H12.6C12.8556 12.0777 13.0417 11.6388 13.1583 11.1833C13.275 10.7277 13.3333 10.2555 13.3333 9.76663C13.3333 9.36663 13.2861 8.97774 13.1917 8.59996C13.0972 8.22218 12.9556 7.85552 12.7667 7.49996L13.5667 6.23329C13.9 6.75552 14.1639 7.31107 14.3583 7.89996C14.5528 8.48885 14.6556 9.09996 14.6667 9.73329C14.6778 10.3666 14.6056 10.9722 14.45 11.55C14.2944 12.1277 14.0667 12.6777 13.7667 13.2C13.6444 13.4 13.4778 13.5555 13.2667 13.6666C13.0556 13.7777 12.8333 13.8333 12.6 13.8333H3.4C3.16666 13.8333 2.94444 13.7777 2.73333 13.6666C2.52222 13.5555 2.35555 13.4 2.23333 13.2C1.94444 12.7 1.72222 12.1694 1.56666 11.6083C1.41111 11.0472 1.33333 10.4555 1.33333 9.83329C1.33333 8.91107 1.50833 8.04718 1.85833 7.24163C2.20833 6.43607 2.68611 5.73052 3.29166 5.12496C3.89722 4.5194 4.60555 4.04163 5.41666 3.69163C6.22777 3.34163 7.08888 3.16663 8 3.16663Z" fill="#121212"/>
</svg>
